<svg width="329" height="45" viewBox="0 0 329 45" fill="none" xmlns="http://www.w3.org/2000/svg">
<rect x="0.928772" y="0.5" width="97.6667" height="44" rx="3.5" stroke="#EDEFF7"/>
<g clip-path="url(#clip0_132_4762)">
<path d="M49.7621 34.5017C56.3895 34.5017 61.7621 29.1291 61.7621 22.5017C61.7621 15.8743 56.3895 10.5017 49.7621 10.5017C43.1347 10.5017 37.7621 15.8743 37.7621 22.5017C37.7621 29.1291 43.1347 34.5017 49.7621 34.5017Z" fill="#1977F3"/>
<path d="M54.4332 25.9712L54.9648 22.5017H51.637V20.2505C51.637 19.3021 52.101 18.3757 53.5928 18.3757H55.1065V15.4225C55.1065 15.4225 53.7329 15.1879 52.42 15.1879C49.6794 15.1879 47.8873 16.8485 47.8873 19.8573V22.5017H44.8396V25.9712H47.8873V34.3565C48.4982 34.4527 49.1242 34.5017 49.7621 34.5017C50.4 34.5017 51.0261 34.451 51.637 34.3565V25.9712H54.4332Z" fill="white"/>
</g>
<rect x="115.595" y="0.5" width="97.6667" height="44" rx="3.5" stroke="#EDEFF7"/>
<path d="M176.174 22.77C176.174 21.98 176.104 21.23 175.984 20.5H164.684V25.01H171.154C170.864 26.49 170.014 27.74 168.754 28.59V31.59H172.614C174.874 29.5 176.174 26.42 176.174 22.77Z" fill="#4285F4"/>
<path d="M164.684 34.5C167.924 34.5 170.634 33.42 172.614 31.59L168.754 28.59C167.674 29.31 166.304 29.75 164.684 29.75C161.554 29.75 158.904 27.64 157.954 24.79H153.974V27.88C155.944 31.8 159.994 34.5 164.684 34.5Z" fill="#34A853"/>
<path d="M157.954 24.79C157.704 24.07 157.574 23.3 157.574 22.5C157.574 21.7 157.714 20.93 157.954 20.21V17.12H153.974C153.154 18.74 152.684 20.56 152.684 22.5C152.684 24.44 153.154 26.26 153.974 27.88L157.954 24.79Z" fill="#FBBC05"/>
<path d="M164.684 15.25C166.454 15.25 168.034 15.86 169.284 17.05L172.704 13.63C170.634 11.69 167.924 10.5 164.684 10.5C159.994 10.5 155.944 13.2 153.974 17.12L157.954 20.21C158.904 17.36 161.554 15.25 164.684 15.25Z" fill="#EA4335"/>
<rect x="230.262" y="0.5" width="97.6667" height="44" rx="3.5" stroke="#EDEFF7"/>
<path d="M288.242 18.6824C288.102 18.7904 285.644 20.1754 285.644 23.2549C285.644 26.8168 288.772 28.077 288.866 28.1082C288.851 28.185 288.369 29.8339 287.217 31.5141C286.189 32.9926 285.116 34.4688 283.484 34.4688C281.852 34.4688 281.432 33.5207 279.548 33.5207C277.712 33.5207 277.059 34.5 275.566 34.5C274.073 34.5 273.031 33.1319 271.834 31.4517C270.446 29.4787 269.325 26.4136 269.325 23.5045C269.325 18.8384 272.359 16.3638 275.345 16.3638C276.932 16.3638 278.254 17.4055 279.25 17.4055C280.198 17.4055 281.677 16.3014 283.482 16.3014C284.166 16.3014 286.624 16.3638 288.242 18.6824ZM282.625 14.326C283.371 13.4403 283.9 12.2114 283.9 10.9824C283.9 10.812 283.885 10.6392 283.854 10.5C282.639 10.5456 281.194 11.3089 280.323 12.3194C279.639 13.0971 279.001 14.326 279.001 15.5717C279.001 15.7589 279.032 15.9461 279.046 16.0062C279.123 16.0206 279.248 16.0374 279.373 16.0374C280.462 16.0374 281.833 15.3077 282.625 14.326Z" fill="black"/>
<defs>
<clipPath id="clip0_132_4762">
<rect width="24" height="24" fill="white" transform="translate(37.7621 10.5)"/>
</clipPath>
</defs>
</svg>
