<svg width="177" height="49" viewBox="0 0 177 49" fill="none" xmlns="http://www.w3.org/2000/svg">
<path d="M7.51106 40.5415V18.2931H12.5659V40.5415H7.51106ZM0 19.0051V14.5554H20.077V19.0051H0Z" fill="white"/>
<path d="M34.1457 40.5415V34.8103H33.327V28.4384C33.327 27.323 33.0541 26.4924 32.5083 25.9466C31.9624 25.4007 31.12 25.1278 29.9808 25.1278C29.3875 25.1278 28.6756 25.1397 27.845 25.1634C27.0144 25.1871 26.1719 25.2227 25.3176 25.2702C24.487 25.2939 23.7394 25.3295 23.0749 25.377V21.1765C23.6208 21.129 24.2378 21.0816 24.926 21.0341C25.6142 20.9866 26.3143 20.9629 27.0262 20.9629C27.7619 20.9392 28.4501 20.9273 29.0909 20.9273C31.0844 20.9273 32.7337 21.1884 34.0389 21.7105C35.3679 22.2326 36.3646 23.0513 37.0291 24.1667C37.7174 25.2821 38.0615 26.7416 38.0615 28.5452V40.5415H34.1457ZM27.9162 41.0399C26.516 41.0399 25.282 40.7907 24.2141 40.2923C23.1699 39.794 22.3511 39.082 21.7578 38.1565C21.1883 37.2309 20.9035 36.1156 20.9035 34.8103C20.9035 33.3864 21.2476 32.2236 21.9358 31.3218C22.6478 30.42 23.6326 29.7436 24.8904 29.2927C26.1719 28.8418 27.667 28.6164 29.3757 28.6164H33.861V31.571H29.3045C28.1654 31.571 27.2873 31.8557 26.6703 32.4253C26.077 32.9711 25.7803 33.6831 25.7803 34.5611C25.7803 35.4392 26.077 36.1512 26.6703 36.697C27.2873 37.2428 28.1654 37.5157 29.3045 37.5157C29.9927 37.5157 30.6216 37.3971 31.1912 37.1598C31.7844 36.8987 32.2709 36.4715 32.6506 35.8782C33.0541 35.2612 33.2795 34.4306 33.327 33.3864L34.5373 34.7747C34.4187 36.1274 34.0864 37.2665 33.5406 38.1921C33.0185 39.1176 32.2828 39.8296 31.3335 40.3279C30.408 40.8026 29.2689 41.0399 27.9162 41.0399Z" fill="white"/>
<path d="M43.3616 47.661V21.2121H47.2773V29.5419L46.6721 29.5063C46.7671 27.5366 47.1705 25.8872 47.8825 24.5583C48.6181 23.2293 49.5911 22.2444 50.8014 21.6037C52.0118 20.9392 53.3645 20.6069 54.8596 20.6069C56.236 20.6069 57.47 20.8561 58.5617 21.3545C59.6771 21.8529 60.6263 22.5529 61.4095 23.4547C62.2164 24.3565 62.8334 25.4126 63.2606 26.6229C63.6877 27.8095 63.9013 29.091 63.9013 30.4674V31.215C63.9013 32.6151 63.6877 33.9204 63.2606 35.1307C62.8571 36.3173 62.252 37.3733 61.4451 38.2989C60.6619 39.2007 59.7127 39.9126 58.5973 40.4347C57.4819 40.9331 56.236 41.1823 54.8596 41.1823C53.4119 41.1823 52.083 40.8856 50.8726 40.2923C49.6861 39.6753 48.7249 38.7379 47.9893 37.4801C47.2536 36.1986 46.8383 34.5493 46.7433 32.5321L48.3096 34.9171V47.661H43.3616ZM53.6136 37.0174C54.6816 37.0174 55.6071 36.7563 56.3902 36.2342C57.1971 35.7121 57.826 34.9883 58.2769 34.0628C58.7278 33.1135 58.9533 32.0456 58.9533 30.859C58.9533 29.625 58.7278 28.557 58.2769 27.6552C57.826 26.7534 57.1971 26.0534 56.3902 25.555C55.6071 25.0329 54.6816 24.7718 53.6136 24.7718C52.6407 24.7718 51.7388 24.9854 50.9082 25.4126C50.1014 25.8398 49.4369 26.4687 48.9148 27.2993C48.4164 28.1299 48.1672 29.1266 48.1672 30.2894V31.7133C48.1672 32.8287 48.4283 33.778 48.9504 34.5611C49.4725 35.3443 50.1488 35.9494 50.9794 36.3766C51.81 36.8038 52.6881 37.0174 53.6136 37.0174Z" fill="white"/>
<path d="M65.9963 26.2669V23.4903H66.8506C67.5388 23.4903 68.0846 23.3835 68.4881 23.17C68.8915 22.9564 69.1882 22.6004 69.378 22.102C69.5679 21.5799 69.6628 20.8917 69.6628 20.0374V17.4032L70.6951 19.3966C70.529 19.5153 70.2917 19.6221 69.9832 19.717C69.6747 19.7882 69.3543 19.8238 69.022 19.8238C68.2389 19.8238 67.5863 19.5865 67.0642 19.1118C66.5421 18.6135 66.2811 17.9371 66.2811 17.0828C66.2811 16.2759 66.5302 15.5996 67.0286 15.0537C67.527 14.4842 68.2389 14.1994 69.1644 14.1994C69.7577 14.1994 70.3036 14.3418 70.8019 14.6266C71.324 14.8876 71.7393 15.3623 72.0478 16.0505C72.3564 16.715 72.5106 17.6405 72.5106 18.8271V19.4322C72.5106 21.1172 72.2733 22.458 71.7987 23.4547C71.3477 24.4515 70.6833 25.1753 69.8052 25.6262C68.9271 26.0534 67.8592 26.2669 66.6014 26.2669H65.9963Z" fill="white"/>
<path d="M76.5951 40.5415V21.2121H80.5108V29.5063H80.1549C80.1549 27.5366 80.4159 25.8991 80.938 24.5939C81.4601 23.2649 82.2314 22.2682 83.2519 21.6037C84.296 20.9392 85.5894 20.6069 87.132 20.6069H87.3456C89.6475 20.6069 91.3918 21.3545 92.5784 22.8496C93.765 24.3209 94.3583 26.528 94.3583 29.4707V40.5415H89.4102V29.0435C89.4102 27.857 89.0661 26.8958 88.3779 26.1601C87.7134 25.4245 86.7879 25.0566 85.6013 25.0566C84.391 25.0566 83.4061 25.4363 82.6467 26.1957C81.911 26.9314 81.5432 27.9281 81.5432 29.1859V40.5415H76.5951Z" fill="white"/>
<path d="M104.412 32.5677V28.1892H109.467C110.488 28.1892 111.342 27.9875 112.03 27.584C112.742 27.1806 113.276 26.6229 113.632 25.911C114.012 25.199 114.202 24.3803 114.202 23.4547C114.202 22.5292 114.012 21.7105 113.632 20.9985C113.276 20.2866 112.742 19.7407 112.03 19.361C111.342 18.9576 110.488 18.7559 109.467 18.7559H104.412V14.3774H109.04C111.223 14.3774 113.074 14.7334 114.593 15.4453C116.136 16.1573 117.31 17.1777 118.117 18.5067C118.924 19.8119 119.328 21.3664 119.328 23.17V23.7395C119.328 25.5431 118.924 27.1094 118.117 28.4384C117.31 29.7436 116.136 30.7641 114.593 31.4998C113.074 32.2117 111.223 32.5677 109.04 32.5677H104.412ZM100.069 40.5415V14.3774H105.124V40.5415H100.069Z" fill="white"/>
<path d="M134.576 40.5415V34.8103H133.758V28.4384C133.758 27.323 133.485 26.4924 132.939 25.9466C132.393 25.4007 131.551 25.1278 130.412 25.1278C129.818 25.1278 129.106 25.1397 128.276 25.1634C127.445 25.1871 126.603 25.2227 125.748 25.2702C124.918 25.2939 124.17 25.3295 123.506 25.377V21.1765C124.051 21.129 124.668 21.0816 125.357 21.0341C126.045 20.9866 126.745 20.9629 127.457 20.9629C128.193 20.9392 128.881 20.9273 129.522 20.9273C131.515 20.9273 133.164 21.1884 134.47 21.7105C135.799 22.2326 136.795 23.0513 137.46 24.1667C138.148 25.2821 138.492 26.7416 138.492 28.5452V40.5415H134.576ZM128.347 41.0399C126.947 41.0399 125.713 40.7907 124.645 40.2923C123.601 39.794 122.782 39.082 122.189 38.1565C121.619 37.2309 121.334 36.1156 121.334 34.8103C121.334 33.3864 121.678 32.2236 122.367 31.3218C123.078 30.42 124.063 29.7436 125.321 29.2927C126.603 28.8418 128.098 28.6164 129.806 28.6164H134.292V31.571H129.735C128.596 31.571 127.718 31.8557 127.101 32.4253C126.508 32.9711 126.211 33.6831 126.211 34.5611C126.211 35.4392 126.508 36.1512 127.101 36.697C127.718 37.2428 128.596 37.5157 129.735 37.5157C130.423 37.5157 131.052 37.3971 131.622 37.1598C132.215 36.8987 132.702 36.4715 133.081 35.8782C133.485 35.2612 133.71 34.4306 133.758 33.3864L134.968 34.7747C134.849 36.1274 134.517 37.2665 133.971 38.1921C133.449 39.1176 132.713 39.8296 131.764 40.3279C130.839 40.8026 129.7 41.0399 128.347 41.0399Z" fill="white"/>
<path d="M142.979 48.1594V43.9233H146.61C147.299 43.9233 147.868 43.8283 148.319 43.6385C148.794 43.4724 149.185 43.1876 149.494 42.7842C149.802 42.4044 150.04 41.8705 150.206 41.1823L155.403 21.2121H160.137L154.406 42.2502C154.026 43.6978 153.492 44.8488 152.804 45.7031C152.116 46.5812 151.226 47.2101 150.134 47.5898C149.067 47.9695 147.738 48.1594 146.148 48.1594H142.979ZM148.995 40.1143V36.1986H153.125V40.1143H148.995ZM147.322 40.1143L141.057 21.2121H146.041L151.986 40.1143H147.322Z" fill="white"/>
<path d="M176.858 7.91054C176.858 12.2794 173.316 15.8211 168.947 15.8211C164.578 15.8211 161.036 12.2794 161.036 7.91054C161.036 3.54167 164.578 0 168.947 0C173.316 0 176.858 3.54167 176.858 7.91054Z" fill="#FDC228"/>
<path d="M155.104 7.91053C155.104 10.095 153.333 11.8658 151.148 11.8658C148.964 11.8658 147.193 10.095 147.193 7.91053C147.193 5.7261 148.964 3.95526 151.148 3.95526C153.333 3.95526 155.104 5.7261 155.104 7.91053Z" fill="#FDC228"/>
</svg>
